<svg id="Layer_1" data-name="Layer 1" xmlns="http://www.w3.org/2000/svg" viewBox="0 0 380.37 108.52"><defs><style>.cls-1,.cls-2{fill:#fff;}.cls-2{opacity:0.2;}</style></defs><title>smartula-white</title><path class="cls-1" d="M35.9,53.23a46,46,0,0,0-33,13.91.86.86,0,0,0-.21.85A69.29,69.29,0,0,0,8.54,81.9.85.85,0,0,0,10,82a31.18,31.18,0,0,1,51.83,0,.86.86,0,0,0,1.45-.06A68.85,68.85,0,0,0,69.07,68a.86.86,0,0,0-.21-.85A46,46,0,0,0,35.9,53.23Z"/><path class="cls-2" d="M61.14,55.06C61.14,73,50.87,89.35,35.9,97c-15-7.6-25.25-24-25.25-41.9A45.62,45.62,0,0,1,11,49.67a1.56,1.56,0,0,1,.74-1.16,46,46,0,0,1,48.39,0l.73,1.15h0l.06.54c0,.22,0,.45.07.67,0,.55.09,1.11.11,1.67,0,.27,0,.55,0,.83Q61.14,54.21,61.14,55.06Z"/><path class="cls-1" d="M40.39,15.11a2.92,2.92,0,0,0,4.07-.71l6.86-9.81a2.91,2.91,0,0,0-4.77-3.35l-6.87,9.81A2.92,2.92,0,0,0,40.39,15.11Z"/><path class="cls-1" d="M33.1,15.11A2.91,2.91,0,0,1,29,14.4L22.17,4.59A2.92,2.92,0,0,1,27,1.24l6.87,9.81A2.92,2.92,0,0,1,33.1,15.11Z"/><path class="cls-1" d="M56.1,26.09h0a1,1,0,0,1-1.29.95A65.29,65.29,0,0,0,17,27a1,1,0,0,1-1.28-.95h0A20.43,20.43,0,0,1,35.9,5.43,20.44,20.44,0,0,1,56.1,26.09Z"/><path class="cls-1" d="M71.27,40.72a.83.83,0,0,0-.4-.62,65.5,65.5,0,0,0-69.95,0,.85.85,0,0,0-.39.62A65.36,65.36,0,0,0,0,49.05c0,1.91.08,3.82.24,5.7a.85.85,0,0,0,1.4.57,53.86,53.86,0,0,1,68.52,0,.84.84,0,0,0,1.39-.57c.16-1.88.24-3.79.24-5.7A65.37,65.37,0,0,0,71.27,40.72Z"/><path class="cls-1" d="M69.07,68a68.85,68.85,0,0,1-5.81,13.93.86.86,0,0,1-1.45.06A31.18,31.18,0,0,0,10,82a.85.85,0,0,1-1.44-.06A69.29,69.29,0,0,1,2.72,68a.86.86,0,0,1,.21-.85,46,46,0,0,1,65.93,0A.86.86,0,0,1,69.07,68Z"/><path class="cls-1" d="M56.48,91.91A64,64,0,0,1,36.3,108.42a.87.87,0,0,1-.8,0A64.08,64.08,0,0,1,15.31,91.91a.88.88,0,0,1-.15-.84,22.05,22.05,0,0,1,41.47,0A.88.88,0,0,1,56.48,91.91Z"/><path class="cls-1" d="M110.21,45.69a1.44,1.44,0,0,1-1.35-1c-.28-.8-1-1.67-3.14-1.67s-3,1.4-3,2.36c0,1.92,2.62,3,5.44,3.84,6,1.67,12.41,3.46,12.41,11.14,0,7.49-6.59,12.09-14.46,12.09-5,0-12.48-2.13-14.2-10.08a1.42,1.42,0,0,1,1.4-1.69h7.82a1.44,1.44,0,0,1,1.32,1c.87,2.29,3.39,2.29,3.79,2.29,1.79,0,3.71-1,3.71-2.75,0-2.75-2.62-3.07-9.41-5.69C95.92,54,92.08,51,92.08,46.21c0-7,6.4-11.71,13.76-11.71,4.38,0,11.73,1.62,13.38,9.51a1.41,1.41,0,0,1-1.4,1.68Z"/><path class="cls-1" d="M127.69,35.71h7.09a1.42,1.42,0,0,1,1.41,1.42v2.36h.13c.83-1.47,3.14-5,9.79-5a10.9,10.9,0,0,1,9.19,4.64,1.4,1.4,0,0,0,2.21.09,12.68,12.68,0,0,1,10.11-4.73A12.85,12.85,0,0,1,177,38.08c3.33,3.52,3.84,5.89,3.84,13.76v18a1.43,1.43,0,0,1-1.42,1.42h-7.79a1.42,1.42,0,0,1-1.41-1.42V52.35c0-2.88,0-7.87-5.44-7.87-5.89,0-5.89,5.37-5.89,7.36v18a1.43,1.43,0,0,1-1.42,1.42h-7.79a1.42,1.42,0,0,1-1.41-1.42V51.9c0-1.92,0-7.42-5.32-7.42-6,0-6,5.76-6,7.87V69.81a1.43,1.43,0,0,1-1.42,1.42h-7.79a1.43,1.43,0,0,1-1.42-1.42V37.13A1.43,1.43,0,0,1,127.69,35.71Z"/><path class="cls-1" d="M224.07,71.23h-7.79a1.43,1.43,0,0,1-1.42-1.42V67.39h-.13c-1.79,3.45-6.2,5-10.36,5-11.27,0-17.86-8.83-17.86-19,0-11.65,8.39-18.94,17.86-18.94,5.82,0,9.08,2.81,10.36,5h.13V37.13a1.43,1.43,0,0,1,1.42-1.42h7.79a1.42,1.42,0,0,1,1.41,1.42V69.81A1.42,1.42,0,0,1,224.07,71.23ZM206,62.53c6.65,0,8.89-5.64,8.89-9.09,0-4.29-2.94-9-9-9s-8.77,5.12-8.77,9.16C197.13,56.89,199.57,62.53,206,62.53Z"/><path class="cls-1" d="M234.58,35.71h7.15a1.42,1.42,0,0,1,1.42,1.42v2.36h.13c.82-1.58,2.44-3.43,7.39-3.73a1.41,1.41,0,0,1,1.5,1.41v5.27a1.42,1.42,0,0,1-1.26,1.4c-4.25.49-7.12,3-7.12,7.87v18.1a1.42,1.42,0,0,1-1.42,1.42h-7.79a1.42,1.42,0,0,1-1.41-1.42V37.13A1.42,1.42,0,0,1,234.58,35.71Z"/><path class="cls-1" d="M275.17,35.71h2.29a1.43,1.43,0,0,1,1.42,1.42v5.23a1.42,1.42,0,0,1-1.42,1.41h-2.29a1.42,1.42,0,0,0-1.41,1.42V69.81a1.43,1.43,0,0,1-1.42,1.42h-7.79a1.43,1.43,0,0,1-1.42-1.42V45.19a1.42,1.42,0,0,0-1.41-1.42H259.3a1.41,1.41,0,0,1-1.41-1.41V37.13a1.42,1.42,0,0,1,1.41-1.42h2.42a1.41,1.41,0,0,0,1.41-1.42v-9a1.43,1.43,0,0,1,1.42-1.42h7.79a1.43,1.43,0,0,1,1.42,1.42v9A1.41,1.41,0,0,0,275.17,35.71Z"/><path class="cls-1" d="M316,71.23h-7.21a1.43,1.43,0,0,1-1.42-1.42V67.45h-.13C305,72,300.68,72.38,298,72.38c-2.18,0-7.3-.51-10.43-4.48-2.82-3.52-3.2-6.08-3.2-10.94V37.13a1.42,1.42,0,0,1,1.42-1.42h7.78A1.42,1.42,0,0,1,295,37.13V55.36c0,2.43,0,7.1,5.7,7.1,3.07,0,6.08-1.6,6.08-7.23V37.13a1.42,1.42,0,0,1,1.41-1.42H316a1.43,1.43,0,0,1,1.42,1.42V69.81A1.43,1.43,0,0,1,316,71.23Z"/><path class="cls-1" d="M326.48,23.87h7.79a1.42,1.42,0,0,1,1.41,1.42V69.81a1.42,1.42,0,0,1-1.41,1.42h-7.79a1.43,1.43,0,0,1-1.42-1.42V25.29A1.43,1.43,0,0,1,326.48,23.87Z"/><path class="cls-1" d="M379,71.23h-7.79a1.42,1.42,0,0,1-1.41-1.42V67.39h-.13c-1.79,3.45-6.21,5-10.37,5-11.26,0-17.85-8.83-17.85-19,0-11.65,8.38-18.94,17.85-18.94,5.83,0,9.09,2.81,10.37,5h.13V37.13a1.42,1.42,0,0,1,1.41-1.42H379a1.42,1.42,0,0,1,1.42,1.42V69.81A1.42,1.42,0,0,1,379,71.23Zm-18.1-8.7c6.66,0,8.9-5.64,8.9-9.09,0-4.29-2.95-9-9-9S352,49.53,352,53.57C352,56.89,354.45,62.53,360.85,62.53Z"/></svg>
