<svg id="Layer_1" data-name="Layer 1" xmlns="http://www.w3.org/2000/svg" viewBox="0 0 548.75 176.98"><defs><style>.cls-1{fill:#f1f1f1;}.cls-2{fill:#fff;}</style></defs><title>light-logo-smartula-tagline</title><polygon class="cls-1" points="125.38 64.72 131.71 37.01 110.89 17.68 83.73 26.05 77.4 53.76 98.23 73.09 125.38 64.72"/><polygon class="cls-1" points="47.98 47.04 54.31 19.33 33.48 0 6.33 8.37 0 36.08 20.83 55.41 47.98 47.04"/><polygon class="cls-1" points="71.37 122.91 77.7 95.21 56.87 75.88 29.71 84.25 23.39 111.95 44.21 131.28 71.37 122.91"/><path class="cls-2" d="M57.6,72.72a25.8,25.8,0,0,1-7.08-11.27A25.49,25.49,0,0,1,50,48.16a25.73,25.73,0,0,1,25,5.72A25.68,25.68,0,0,1,57.6,72.72Z"/><path class="cls-2" d="M91.34,126.74a36.5,36.5,0,0,0,22.06,7.84c3.75,0,6.82-.79,8.87-2.5a7.64,7.64,0,0,0,2.73-5.8c0-5.34-5.92-6-14.33-8.3-8.87-2.5-15.92-5.8-15.92-14.32a18.06,18.06,0,0,1,5.69-13c4.09-3.75,10-5.45,16.71-5.45a44.63,44.63,0,0,1,21,5.23l-1.82,10.34a36.75,36.75,0,0,0-20.24-6.36,14.51,14.51,0,0,0-7.62,1.7,7.23,7.23,0,0,0-3.41,6c0,5.46,6.59,5.91,14.44,8,8.64,2.27,15.8,5.8,15.8,14.67a18.18,18.18,0,0,1-5.91,13.41c-4.21,3.75-10,5.46-17.05,5.46-7.51,0-15.92-1.82-22.86-6.37Z"/><path class="cls-2" d="M155.3,86.49h10.23l-1.25,6.93.23.12c5.11-4.44,12.05-8.3,19.55-8.3S197.25,89,199.41,95.36c7.73-6.71,15.24-10.12,22.52-10.12,9.89,0,16.6,6.25,16.6,16.37a48.07,48.07,0,0,1-.91,8.07l-5.8,32.75H221.58l5.69-32.07a37.86,37.86,0,0,0,.8-6.59c0-5.46-2.85-9-9.1-9s-12.51,3.52-18.65,9.09a57.6,57.6,0,0,1-.79,5.8l-5.8,32.75H183.5l5.68-32.07a37.86,37.86,0,0,0,.8-6.59c0-5.46-2.85-9-9.1-9s-12.39,3.64-18.42,9l-6.82,38.66H145.4Z"/><path class="cls-2" d="M295.91,142.43H285.68l.9-4.89-.22-.12c-4,3.3-9.1,6.26-15.92,6.26-12.17,0-21.72-9.44-21.72-24a36.5,36.5,0,0,1,9.89-24.9A32.12,32.12,0,0,1,282,85.24c8.18,0,15.8,2.84,22.85,6.14Zm-2.28-45.14a30.32,30.32,0,0,0-12.62-3,20,20,0,0,0-15.69,7A27.27,27.27,0,0,0,259,118.89c0,10.12,6,15.81,13.53,15.81,5.57,0,11.25-3.07,16-8.08Z"/><path class="cls-2" d="M320.69,86.49h10.24L329.22,96l.23.11C334.22,90.13,342.87,86,350,86a18.12,18.12,0,0,1,3.52.34l-1.7,9.9a25.74,25.74,0,0,0-3.41-.23c-8,0-15.58,4.43-21.27,11.6L321,142.43H310.8Z"/><path class="cls-2" d="M390.37,142.88a27,27,0,0,1-6.48.8c-9.32,0-17.05-4.89-17.05-15.81a48.62,48.62,0,0,1,.79-8L372,95.7H361.83l1.6-9.21h10.23l2.73-15.81,10.35-.56-2.85,16.37h16.49l-1.59,9.21h-16.6L378,119.57a42.9,42.9,0,0,0-.8,6.83c0,4.89,2.62,8,8.42,8a23.38,23.38,0,0,0,6.48-1Z"/><path class="cls-2" d="M442.11,135.83c-5.34,4-11.71,7.85-19.33,7.85-9.66,0-17.28-6.14-17.28-16.71a58.18,58.18,0,0,1,.91-8.87L412,86.49h10.23l-5.45,30.92a51.48,51.48,0,0,0-.8,7.74c0,5.45,2.73,9.09,9.21,9.09s12.85-3.52,19.1-9.09l6.82-38.66h10.24l-9.9,55.94H441.2l1.14-6.48Z"/><path class="cls-2" d="M481.61,55.56h10.23l-15.35,86.87H466.26Z"/><path class="cls-2" d="M539.77,142.43H529.54l.91-4.89-.23-.12c-4,3.3-9.1,6.26-15.92,6.26-12.17,0-21.71-9.44-21.71-24a36.5,36.5,0,0,1,9.89-24.9,32.08,32.08,0,0,1,23.42-9.55c8.19,0,15.8,2.84,22.85,6.14ZM537.5,97.29a30.4,30.4,0,0,0-12.63-3,20,20,0,0,0-15.69,7,27.27,27.27,0,0,0-6.36,17.51c0,10.12,6,15.81,13.53,15.81,5.57,0,11.25-3.07,16-8.08Z"/><path class="cls-1" d="M268.51,169.81a5.75,5.75,0,0,1-4,1.71c-2.56,0-4.74-1.86-4.74-5.19a8.2,8.2,0,0,1,2.08-5.46,6.46,6.46,0,0,1,4.85-2.11,6.37,6.37,0,0,1,3.57,1l.05,0,1.32-7.5h1.46l-3.35,19h-1.46l.24-1.42Zm1.59-8.65a5.87,5.87,0,0,0-3.42-1.11,5,5,0,0,0-3.83,1.73,7,7,0,0,0-1.59,4.43c0,2.58,1.54,4,3.53,4a6,6,0,0,0,4.07-2Z"/><path class="cls-1" d="M283.66,170.75a8.33,8.33,0,0,1-3.53.77c-3.15,0-5.89-1.89-5.89-5.56a7.92,7.92,0,0,1,1.72-4.9,6.1,6.1,0,0,1,4.77-2.3,4.66,4.66,0,0,1,4.84,5,7.5,7.5,0,0,1-.2,1.74h-9.69v.34c0,2.79,1.94,4.33,4.57,4.33a8,8,0,0,0,3.68-1Zm.52-6.43a4.38,4.38,0,0,0,0-.47c0-2-1.06-3.78-3.55-3.78a4.45,4.45,0,0,0-3.65,1.84,6.1,6.1,0,0,0-1.14,2.41Z"/><path class="cls-1" d="M287.42,168.49a7.6,7.6,0,0,0,4.82,1.72,3.85,3.85,0,0,0,2.29-.62,2.16,2.16,0,0,0,.87-1.72c0-1.49-1.52-1.81-3.08-2.21-2-.5-3.9-1.07-3.9-3.18a3.5,3.5,0,0,1,1.39-2.81,5.34,5.34,0,0,1,3.23-.91,8.45,8.45,0,0,1,4.49,1.24l-.25,1.41a8.09,8.09,0,0,0-4.44-1.34,3.41,3.41,0,0,0-2.11.57,2.08,2.08,0,0,0-.85,1.67c0,1.39,1.37,1.64,3.11,2.08,1.93.5,3.87,1.17,3.87,3.28a3.69,3.69,0,0,1-1.51,3,5.43,5.43,0,0,1-3.18.87,9.09,9.09,0,0,1-5-1.46Z"/><path class="cls-1" d="M301.62,159h1.47l-2.16,12.22h-1.47Zm.35-4.2a1.19,1.19,0,0,1,1.19-1.19,1,1,0,0,1,1.07,1.07A1.19,1.19,0,0,1,303,155.9,1,1,0,0,1,302,154.83Z"/><path class="cls-1" d="M313.94,169.86a5.68,5.68,0,0,1-3.65,1.39,4.79,4.79,0,0,1-4.89-5.14,7.76,7.76,0,0,1,2.11-5.34,6.59,6.59,0,0,1,4.89-2,10,10,0,0,1,4.79,1.33l-2,11.53c-.72,4-3.28,5.36-6.19,5.36a8.57,8.57,0,0,1-4.3-1.11l.28-1.52a7.64,7.64,0,0,0,4.1,1.3,4.42,4.42,0,0,0,4.62-4l.32-1.77Zm1.64-8.94a7,7,0,0,0-3.31-.85,5,5,0,0,0-3.77,1.61,6.56,6.56,0,0,0-1.64,4.33c0,2.48,1.54,4,3.68,4a5.73,5.73,0,0,0,3.72-1.57Z"/><path class="cls-1" d="M321.73,159h1.46l-.29,1.71.05,0a7.51,7.51,0,0,1,4.77-2,3.35,3.35,0,0,1,3.6,3.6,12,12,0,0,1-.23,2l-1.21,6.93h-1.47l1.22-6.88a11.38,11.38,0,0,0,.22-1.79,2.25,2.25,0,0,0-2.51-2.46c-1.66,0-3.2,1-4.76,2.36L321,171.25h-1.46Z"/><path class="cls-1" d="M343.7,170.75a8.29,8.29,0,0,1-3.52.77c-3.16,0-5.89-1.89-5.89-5.56a8,8,0,0,1,1.71-4.9,6.1,6.1,0,0,1,4.77-2.3,4.67,4.67,0,0,1,4.85,5,8.08,8.08,0,0,1-.2,1.74h-9.69v.34c0,2.79,1.94,4.33,4.57,4.33a8,8,0,0,0,3.67-1Zm.53-6.43a4.38,4.38,0,0,0,0-.47c0-2-1.07-3.78-3.55-3.78a4.44,4.44,0,0,0-3.65,1.84,6,6,0,0,0-1.15,2.41Z"/><path class="cls-1" d="M356.66,169.81a5.77,5.77,0,0,1-4,1.71c-2.56,0-4.75-1.86-4.75-5.19a8.21,8.21,0,0,1,2.09-5.46,6.64,6.64,0,0,1,8.42-1.07l.05,0,1.32-7.5h1.46l-3.35,19h-1.47l.25-1.42Zm1.59-8.65a5.9,5.9,0,0,0-3.43-1.11,4.94,4.94,0,0,0-3.82,1.73,7,7,0,0,0-1.59,4.43c0,2.58,1.54,4,3.52,4a6,6,0,0,0,4.08-2Z"/><path class="cls-1" d="M374.38,171.3a5.31,5.31,0,0,1-1.44.22,3,3,0,0,1-3.3-3.13,10.45,10.45,0,0,1,.2-1.81l1.09-6.26h-2.41l.22-1.29h2.41l.62-3.51,1.47-.07-.62,3.58h3.95l-.23,1.29h-3.95l-1.09,6.21a10.64,10.64,0,0,0-.2,1.64,1.84,1.84,0,0,0,2,2,4.37,4.37,0,0,0,1.49-.27Z"/><path class="cls-1" d="M377.23,165.83a7.53,7.53,0,0,1,2-5.16,6.09,6.09,0,0,1,4.54-1.91,5.4,5.4,0,0,1,5.66,5.68,7.59,7.59,0,0,1-2,5.17,6.13,6.13,0,0,1-4.54,1.91A5.41,5.41,0,0,1,377.23,165.83Zm9.14,2.91a6.17,6.17,0,0,0,1.62-4.2,4.13,4.13,0,0,0-4.25-4.45,4.6,4.6,0,0,0-3.43,1.45,6.2,6.2,0,0,0-1.61,4.19,4.12,4.12,0,0,0,4.25,4.45A4.57,4.57,0,0,0,386.37,168.74Z"/><path class="cls-2" d="M401.22,160a5.74,5.74,0,0,1,3.55-1.26c2.83,0,5,2.13,5,5.46a7.76,7.76,0,0,1-2,5.29,7,7,0,0,1-8.39,1.07l-.05,0-1.07,6.11h-1.47L399.87,159h1.47l-.18,1Zm-1.69,9.19a6,6,0,0,0,3.4,1,4.94,4.94,0,0,0,3.77-1.61,6.58,6.58,0,0,0,1.59-4.33c0-2.55-1.54-4.22-3.8-4.22a5.63,5.63,0,0,0-3.6,1.44Z"/><path class="cls-2" d="M415.34,161a5.91,5.91,0,0,1,4.17-2.07,3.17,3.17,0,0,1,.72.08l-.25,1.44a4.16,4.16,0,0,0-.69,0,5.88,5.88,0,0,0-4.3,2.36l-1.49,8.52H412L414.2,159h1.46l-.35,1.91Z"/><path class="cls-2" d="M420.8,165.83a7.56,7.56,0,0,1,2-5.16,6.09,6.09,0,0,1,4.54-1.91,5.4,5.4,0,0,1,5.67,5.68,7.59,7.59,0,0,1-2,5.17,6.17,6.17,0,0,1-4.55,1.91A5.4,5.4,0,0,1,420.8,165.83Zm9.14,2.91a6.21,6.21,0,0,0,1.61-4.2,4.12,4.12,0,0,0-4.24-4.45,4.6,4.6,0,0,0-3.43,1.45,6.21,6.21,0,0,0-1.62,4.19,4.13,4.13,0,0,0,4.25,4.45A4.59,4.59,0,0,0,429.94,168.74Z"/><path class="cls-2" d="M441.48,171.3a5.31,5.31,0,0,1-1.44.22,3,3,0,0,1-3.3-3.13,11.37,11.37,0,0,1,.19-1.81l1.1-6.26h-2.41l.22-1.29h2.41l.62-3.51,1.47-.07-.62,3.58h3.95l-.23,1.29h-3.95l-1.09,6.21a9.52,9.52,0,0,0-.2,1.64,1.84,1.84,0,0,0,2,2,4.42,4.42,0,0,0,1.49-.27Z"/><path class="cls-2" d="M453.75,170.75a8.33,8.33,0,0,1-3.53.77c-3.16,0-5.89-1.89-5.89-5.56a7.92,7.92,0,0,1,1.72-4.9,6.08,6.08,0,0,1,4.76-2.3,4.67,4.67,0,0,1,4.85,5,7.5,7.5,0,0,1-.2,1.74h-9.69v.34c0,2.79,1.94,4.33,4.57,4.33a8.08,8.08,0,0,0,3.68-1Zm.52-6.43a4.38,4.38,0,0,0,0-.47c0-2-1.07-3.78-3.55-3.78a4.44,4.44,0,0,0-3.65,1.84,6,6,0,0,0-1.14,2.41Z"/><path class="cls-2" d="M466.93,170.85a8,8,0,0,1-3.31.67c-3.15,0-5.61-1.93-5.61-5.41a7.66,7.66,0,0,1,2.36-5.59,7,7,0,0,1,4.72-1.76,7.79,7.79,0,0,1,3.53.84l-.25,1.46a6.52,6.52,0,0,0-3.36-1,5.15,5.15,0,0,0-3.65,1.4,6.29,6.29,0,0,0-1.88,4.52,3.89,3.89,0,0,0,4.27,4.17,7.55,7.55,0,0,0,3.45-.85Z"/><path class="cls-2" d="M476.48,171.3a5.31,5.31,0,0,1-1.44.22,3,3,0,0,1-3.31-3.13,11.53,11.53,0,0,1,.2-1.81l1.1-6.26h-2.41l.22-1.29h2.41l.62-3.51,1.47-.07-.62,3.58h3.95l-.23,1.29h-3.95l-1.09,6.21a10.64,10.64,0,0,0-.2,1.64,1.84,1.84,0,0,0,2,2,4.42,4.42,0,0,0,1.49-.27Z"/><path class="cls-2" d="M488.87,160a6,6,0,0,1,3.6-1.26c2.73,0,4.91,2,4.91,5.31a7.82,7.82,0,0,1-2.08,5.32,7.33,7.33,0,0,1-5.52,2.13,11.79,11.79,0,0,1-4.32-.82l3.26-18.43h1.46L488.81,160Zm-1.77,9.69a8.42,8.42,0,0,0,2.88.52,5.57,5.57,0,0,0,4.32-1.74,6.64,6.64,0,0,0,1.62-4.32c0-2.51-1.54-4.1-3.7-4.1a5.93,5.93,0,0,0-3.68,1.47Z"/><path class="cls-2" d="M509.2,170.75a8.33,8.33,0,0,1-3.53.77c-3.15,0-5.88-1.89-5.88-5.56a8,8,0,0,1,1.71-4.9,6.1,6.1,0,0,1,4.77-2.3,4.66,4.66,0,0,1,4.84,5,7.5,7.5,0,0,1-.2,1.74h-9.68v.34c0,2.79,1.93,4.33,4.57,4.33a8,8,0,0,0,3.67-1Zm.52-6.43a2.93,2.93,0,0,0,0-.47c0-2-1.07-3.78-3.56-3.78a4.47,4.47,0,0,0-3.65,1.84,6.1,6.1,0,0,0-1.14,2.41Z"/><path class="cls-2" d="M522.85,170.75a8.3,8.3,0,0,1-3.53.77c-3.15,0-5.88-1.89-5.88-5.56a8,8,0,0,1,1.71-4.9,6.1,6.1,0,0,1,4.77-2.3,4.66,4.66,0,0,1,4.84,5,7,7,0,0,1-.2,1.74h-9.68v.34c0,2.79,1.93,4.33,4.57,4.33a8.11,8.11,0,0,0,3.68-1Zm.52-6.43a2.93,2.93,0,0,0,0-.47c0-2-1.07-3.78-3.55-3.78a4.44,4.44,0,0,0-3.65,1.84,6.13,6.13,0,0,0-1.15,2.41Z"/><path class="cls-2" d="M526.62,168.49a7.58,7.58,0,0,0,4.82,1.72,3.82,3.82,0,0,0,2.28-.62,2.13,2.13,0,0,0,.87-1.72c0-1.49-1.51-1.81-3.08-2.21-2-.5-3.9-1.07-3.9-3.18a3.53,3.53,0,0,1,1.39-2.81,5.36,5.36,0,0,1,3.23-.91,8.49,8.49,0,0,1,4.5,1.24l-.25,1.41a8.12,8.12,0,0,0-4.45-1.34,3.43,3.43,0,0,0-2.11.57,2.07,2.07,0,0,0-.84,1.67c0,1.39,1.36,1.64,3.1,2.08,1.94.5,3.88,1.17,3.88,3.28a3.7,3.7,0,0,1-1.52,3,5.41,5.41,0,0,1-3.18.87,9.14,9.14,0,0,1-5-1.46Z"/></svg>